<svg width="88" height="88" fill="none" xmlns="http://www.w3.org/2000/svg"><path d="M43.133.505a1 1 0 0 1 1.733 0l6.068 10.534a1 1 0 0 0 1.43.327l10.148-6.923a1 1 0 0 1 1.562.76l.79 12.02a1 1 0 0 0 1.155.923l12.183-1.925a1 1 0 0 1 1.08 1.37l-4.6 11.125a1 1 0 0 0 .644 1.342l11.782 3.423a1 1 0 0 1 .385 1.708l-9.072 8.063a1 1 0 0 0 0 1.495l9.072 8.064a1 1 0 0 1-.385 1.708l-11.782 3.423a1 1 0 0 0-.645 1.342l4.602 11.125a1 1 0 0 1-1.08 1.37l-12.184-1.925a1 1 0 0 0-1.154.922l-.791 12.02a1 1 0 0 1-1.562.761l-10.148-6.922a1 1 0 0 0-1.43.326l-6.067 10.535a1 1 0 0 1-1.733 0l-6.068-10.534a1 1 0 0 0-1.43-.328l-10.148 6.923a1 1 0 0 1-1.562-.76l-.79-12.02a1 1 0 0 0-1.155-.923L9.798 71.78a1 1 0 0 1-1.08-1.37l4.6-11.125a1 1 0 0 0-.644-1.342L.892 54.519a1 1 0 0 1-.386-1.708l9.073-8.063a1 1 0 0 0 0-1.495L.506 35.188a1 1 0 0 1 .386-1.708l11.782-3.423a1 1 0 0 0 .645-1.342L8.718 17.59a1 1 0 0 1 1.08-1.37l12.183 1.925a1 1 0 0 0 1.154-.922l.791-12.02a1 1 0 0 1 1.562-.761l10.148 6.923a1 1 0 0 0 1.43-.327L43.133.505Z" fill="#ECD979"/></svg>